<!DOCTYPE svg PUBLIC "-//W3C//DTD SVG 1.1//EN" "http://www.w3.org/Graphics/SVG/1.1/DTD/svg11.dtd">
<!-- Uploaded to: SVG Repo, www.svgrepo.com, Transformed by: SVG Repo Mixer Tools -->
<svg fill="#ffffff" height="800px" width="800px" version="1.1" id="Layer_1" xmlns="http://www.w3.org/2000/svg" xmlns:xlink="http://www.w3.org/1999/xlink" viewBox="0 0 512 512" xml:space="preserve" stroke="#ffffff">
<g id="SVGRepo_bgCarrier" stroke-width="0"/>
<g id="SVGRepo_tracerCarrier" stroke-linecap="round" stroke-linejoin="round"/>
<g id="SVGRepo_iconCarrier"> <g> <g> <path d="M316.937,118.892c20.416,1.983,44.587,11.443,70.303,36.139c0,0-7.137-82.179-89.192-92.304 c-7.534-0.929-14.482-0.738-20.854,0.249c-3.969-5.08-8.903-9.98-15.03-14.46c-66.741-48.798-128.205,6.217-128.205,6.217 c35.652-0.393,59.746,9.259,75.985,21.788c-13.409-1.064-28.81-0.159-45.679,4.443c-92.651,25.291-93.154,135.047-93.154,135.047 c40.7-48.439,84.891-56.585,116.823-53.899c0.3-1.627,0.752-3.247,1.385-4.843c5.271-13.313,20.339-19.829,33.647-14.559 c8.078,3.199,13.631,10.01,15.589,17.84c6.788-4.366,15.498-5.53,23.575-2.331c13.311,5.269,19.83,20.336,14.559,33.648 c-0.631,1.594-1.412,3.086-2.304,4.477c25.111,19.903,51.745,56.095,48.247,119.266c0,0,74.775-80.344,24.557-162.207 C338.047,138.498,327.438,127.295,316.937,118.892z"/> </g> </g> <g> <g> <path d="M412.444,441.004c0-38.967-35.189-72.7-86.44-89.047c-2.139-6.987-7.306-12.978-14.626-15.876 c-10.112-4.005-21.262-0.903-27.991,6.892c-8.893-0.998-18.044-1.522-27.388-1.522c-9.68,0-19.15,0.563-28.343,1.634l6.608-33.04 h-14.295l20.151-62.08l-13.11-1.535l19.565-38.916c-1.186-0.283-2.371-0.623-3.538-1.087 c-8.077-3.199-13.628-10.008-15.586-17.839c-6.788,4.366-15.498,5.53-23.575,2.331c-1.533-0.607-2.965-1.358-4.311-2.209 l-3.853,54.056l-14.444-1.69l5.588,68.969h-11.85l8.543,42.709c-49.923,16.629-83.995,49.903-83.995,88.247H0v42.667h512v-42.667 H412.444z"/> </g> </g> </g>
</svg>